<svg width="360" height="882" viewBox="0 0 360 882" fill="none" xmlns="http://www.w3.org/2000/svg">
<g filter="url(#filter0_f_367_787)">
<path fill-rule="evenodd" clip-rule="evenodd" d="M395.039 215.966C445.651 202.267 495.621 262.147 522.232 333.39C545.774 396.42 528.578 472.015 517.357 543.447C506.684 611.397 498.079 684.785 461.274 721.462C420.353 762.24 367.907 769.295 324.645 735.486C281.37 701.668 248.997 631.16 246.105 553.312C243.572 485.119 287.311 445.865 311.824 390.343C339.583 327.465 348.045 228.687 395.039 215.966Z" fill="#6857F0"/>
</g>
<g filter="url(#filter1_f_367_787)">
<path fill-rule="evenodd" clip-rule="evenodd" d="M1.39173 -57.2286C26.5338 -50.0055 40.6567 -1.23191 59.4825 33.3058C80.1097 71.1484 113.078 94.77 114.912 151.036C116.772 208.077 88.6352 247.11 67.7006 285.421C48.2712 320.978 27.5387 356.181 1.39173 358.786C-25.8917 361.504 -52.2877 338.115 -71.7734 299.317C-91.4319 260.174 -102.193 206.867 -102.947 151.036C-103.722 93.5543 -96.1037 34.7652 -75.8886 -5.58508C-55.7988 -45.6854 -26.5268 -65.2493 1.39173 -57.2286Z" fill="#6857F0"/>
</g>
<defs>
<filter id="filter0_f_367_787" x="121" y="89" width="538" height="793" filterUnits="userSpaceOnUse" color-interpolation-filters="sRGB">
<feFlood flood-opacity="0" result="BackgroundImageFix"/>
<feBlend mode="normal" in="SourceGraphic" in2="BackgroundImageFix" result="shape"/>
<feGaussianBlur stdDeviation="62.5" result="effect1_foregroundBlur_367_787"/>
</filter>
<filter id="filter1_f_367_787" x="-228" y="-184" width="468" height="668" filterUnits="userSpaceOnUse" color-interpolation-filters="sRGB">
<feFlood flood-opacity="0" result="BackgroundImageFix"/>
<feBlend mode="normal" in="SourceGraphic" in2="BackgroundImageFix" result="shape"/>
<feGaussianBlur stdDeviation="62.5" result="effect1_foregroundBlur_367_787"/>
</filter>
</defs>
</svg>
