<svg width="28" height="18" viewBox="0 0 28 18" fill="none" xmlns="http://www.w3.org/2000/svg">
<path fill-rule="evenodd" clip-rule="evenodd" d="M27.125 1.5C27.125 1.79837 27.0065 2.08452 26.7955 2.2955C26.5845 2.50647 26.2984 2.625 26 2.625H2C1.70163 2.625 1.41548 2.50647 1.2045 2.2955C0.993526 2.08452 0.875 1.79837 0.875 1.5C0.875 1.20163 0.993526 0.915483 1.2045 0.704505C1.41548 0.493526 1.70163 0.375 2 0.375H26C26.2984 0.375 26.5845 0.493526 26.7955 0.704505C27.0065 0.915483 27.125 1.20163 27.125 1.5ZM27.125 9C27.125 9.29837 27.0065 9.58452 26.7955 9.79549C26.5845 10.0065 26.2984 10.125 26 10.125H2C1.70163 10.125 1.41548 10.0065 1.2045 9.79549C0.993526 9.58452 0.875 9.29837 0.875 9C0.875 8.70163 0.993526 8.41548 1.2045 8.20451C1.41548 7.99353 1.70163 7.875 2 7.875H26C26.2984 7.875 26.5845 7.99353 26.7955 8.20451C27.0065 8.41548 27.125 8.70163 27.125 9ZM27.125 16.5C27.125 16.7984 27.0065 17.0845 26.7955 17.2955C26.5845 17.5065 26.2984 17.625 26 17.625H2C1.70163 17.625 1.41548 17.5065 1.2045 17.2955C0.993526 17.0845 0.875 16.7984 0.875 16.5C0.875 16.2016 0.993526 15.9155 1.2045 15.7045C1.41548 15.4935 1.70163 15.375 2 15.375H26C26.2984 15.375 26.5845 15.4935 26.7955 15.7045C27.0065 15.9155 27.125 16.2016 27.125 16.5Z" fill="white"/>
</svg>
